<svg xmlns="http://www.w3.org/2000/svg" version="1.1" xmlns:xlink="http://www.w3.org/1999/xlink" xmlns:svgjs="http://svgjs.dev/svgjs" width="100%" height="100%" viewBox="0 0 1000 600"><rect width="1000" height="600" x="0" y="0" fill="#2f3c7e"/><g><rect width="333.3333333333333" height="333.3333333333333" rx="13.333333333333334" ry="13.333333333333334" y="168.549742898209" fill="#fbeaeb" transform="matrix(0.8542482688229205,0,0,0.8542482688229207,0,13.641987030114223)" x="146.3275146484375"/><path d="M238.60871167240344 407.699815690909L220.2903368969708 407.699815690909L220.2903368969708 260.21641494301707L308.98521540230024 260.21641494301707L308.98521540230024 277.48133685596474L238.60871167240344 277.48133685596474L238.60871167240344 322.77980994281717L285.1654756783352 322.77980994281717L285.1654756783352 340.0739944352784L238.60871167240344 340.0739944352784L238.60871167240344 407.699815690909ZM367.33479895216067 410.2163975290675L367.33479895216067 410.2163975290675Q355.95165552142066 410.2163975290675 345.4756520555982 405.3295467503179Q334.99964858977563 400.4426959715683 328.35704304021783 392.1028608102292L328.35704304021783 392.1028608102292L341.4374160827392 380.9538180155968Q347.11435650835244 387.0404345543987 354.0788504325585 390.43489377796135Q361.014081777251 393.80009042201044 367.77373764486276 393.80009042201044L367.77373764486276 393.80009042201044Q377.25481340722723 393.80009042201044 382.522077719652 390.17153056234Q387.78934203207666 386.5137081231563 387.78934203207666 380.1052032097062L387.78934203207666 380.1052032097062Q387.78934203207666 375.89139175976635 385.41907309148553 372.52619511571726Q383.0488041508944 369.1317358921547 377.6059643613889 366.0884276227537Q372.1923871513968 363.04511935335285 363.12098750222094 359.6506601297902L363.12098750222094 359.6506601297902Q345.32933915803073 353.0373171597459 337.57475558696103 345.2242084296492Q329.84943459540483 337.44036227906594 329.84943459540483 325.94016853027205L329.84943459540483 325.94016853027205Q329.84943459540483 313.29873418045275 339.8864993685252 305.39783771181567Q349.9528267211591 297.49694124317864 366.0765080330815 297.49694124317864L366.0765080330815 297.49694124317864Q377.13776308917335 297.49694124317864 386.4140007949435 301.6814901136049Q395.6902385007137 305.83677640451776 402.3035814707581 313.73767287315485L402.3035814707581 313.73767287315485L389.6621471209388 324.2722014980042Q379.97623330197996 313.94251092974906 365.87166997648717 313.94251092974906L365.87166997648717 313.94251092974906Q357.53183481514804 313.94251092974906 352.76203435445234 317.1613946762308Q347.9629713142431 320.3802784227126 347.9629713142431 325.94016853027205L347.9629713142431 325.94016853027205Q347.9629713142431 331.3244831607506 353.3765485242352 335.391981713123Q358.8193883137407 339.430217685982 373.04100195728745 344.6974819984068L373.04100195728745 344.6974819984068Q384.62898344462184 348.9112934483465 391.8275780049356 353.856669386123Q399.0554351447629 358.831307903413 402.36210662978505 365.15202507832265Q405.6980406943207 371.4727422532323 405.6980406943207 379.6662645170041L405.6980406943207 379.6662645170041Q405.6980406943207 393.8878781605509 395.456137864606 402.0521378448091Q385.2434976144047 410.2163975290675 367.33479895216067 410.2163975290675Z " fill="#2f3c7e" transform="matrix(0.8542482688229205,0,0,0.8542482688229207,0,13.641987030114223)"/><path d="M612.8427823355889 410.2164093603495L612.8427823355889 410.2164093603495Q600.3806333848111 410.2164093603495 590.2746538256381 406.1002098207986Q580.1402866834338 401.9556226982166 573.1569412577132 394.7451766082448Q566.1452082489611 387.5347305182732 562.9941865324774 378.33715361610456L562.9941865324774 378.33715361610456L579.7428605209944 372.20543568132547Q584.0293855587336 381.71527599683924 592.7727611324 387.5915056843359Q601.5161367060664 393.4677353718325 613.2685960810597 393.4677353718325L613.2685960810597 393.4677353718325Q626.1281711942769 393.4677353718325 633.7928186127508 387.27924227099066Q641.4574660312246 381.09074917014885 641.4574660312246 369.3382897951556L641.4574660312246 369.3382897951556Q641.4574660312246 361.07750313302273 636.8586775801402 355.45676169280847Q632.259889129056 349.8360202525943 624.9075051239273 346.0036965433574Q617.5551211187988 342.1713728341205 609.1807841245402 339.105513866731L609.1807841245402 339.105513866731Q601.7148497872861 336.3519183126867 594.248915450032 332.9737959319519Q586.7829811127779 329.5956735512171 580.7080383440615 324.9401099340701Q574.6330955753451 320.284546316923 570.9427097812652 313.61346430454756Q567.2807115702166 306.91399470914087 567.2807115702166 297.6028674748467L567.2807115702166 297.6028674748467Q567.2807115702166 288.00786441023865 572.4756392649599 279.97417841235676Q577.6989545427348 271.96887999750635 587.5210582715938 267.1146032991396Q597.3147744174215 262.2603266007728 611.2246901028 262.2603266007728L611.2246901028 262.2603266007728Q622.5513357323224 262.2603266007728 631.2095485568948 265.5816738154448Q639.8393737984356 268.9030210301168 645.4033400725871 274.66570038548787Q650.9673063467385 280.428379740859 653.1247626571237 287.80915132901896L653.1247626571237 287.80915132901896L636.7735148310461 293.31634243710755Q634.2186323582215 287.298174834454 627.4056124306892 283.04003737974637Q620.6209800861883 278.81028750807 610.0040240324504 278.81028750807L610.0040240324504 278.81028750807Q598.6489908198967 278.81028750807 592.1482343057095 283.8065021215937Q585.6758653745538 288.83110431814885 585.6758653745538 297.6028674748467L585.6758653745538 297.6028674748467Q585.6758653745538 304.2455619041907 590.0191655783557 308.702412440118Q594.3624657821575 313.13087539301404 601.402586373941 316.4238350246547Q608.4710945487557 319.68840707326393 616.5331681296689 322.7542660406535L616.5331681296689 322.7542660406535Q624.0842652160172 325.6214119268233 631.7205250514596 329.2266349718091Q639.3283973038708 332.8602455998263 645.7156034859322 338.0835608776011Q652.1028096679938 343.27848857234454 655.9919085432934 350.8011980756615Q659.8526198355618 358.3239075789783 659.8526198355618 368.94086363271623L659.8526198355618 368.94086363271623Q659.8526198355618 382.1127021592786 653.7209019007828 391.31027906144726Q647.5891839660037 400.5078559636159 636.9722279122658 405.3621326619827Q626.355271858528 410.2164093603495 612.8427823355889 410.2164093603495ZM730.5944767497723 410.2164093603495L730.5944767497723 410.2164093603495Q709.1334639780455 410.2164093603495 696.7564777763619 395.56841651615497Q684.3794915746781 380.89203608892916 684.3794915746781 355.65547477402816L684.3794915746781 355.65547477402816Q684.3794915746781 338.7932504533857 690.0002330148923 326.52981458382754Q695.6209744551064 314.2663787142695 706.0108298445932 307.56690911886267Q716.3722976510486 300.8674395234559 730.5944767497723 300.8674395234559L730.5944767497723 300.8674395234559Q744.9018185975901 300.8674395234559 755.2632864040455 307.48174636976853Q765.6247542105009 314.0676656330498 771.2171080676837 326.33110150260785Q776.781074341835 338.59453737216603 776.781074341835 355.45676169280847L776.781074341835 355.45676169280847Q776.781074341835 372.318986013451 771.1603329016209 384.6391970490719Q765.5395914614068 396.9310205016614 755.14973607192 403.57371493100544Q744.7882682654646 410.2164093603495 730.5944767497723 410.2164093603495ZM730.5944767497723 393.66644845305217L730.5944767497723 393.66644845305217Q743.7663152763348 393.66644845305217 751.2890247796516 383.5036937278165Q758.7833466999373 373.3409390025808 758.7833466999373 355.45676169280847L758.7833466999373 355.45676169280847Q758.7833466999373 337.4590340509107 751.2890247796516 327.35305449173774Q743.7663152763348 317.21868734953347 730.5944767497723 317.21868734953347L730.5944767497723 317.21868734953347Q717.3090878910843 317.21868734953347 709.8431535538301 327.296279325675Q702.377219216576 337.37387130181656 702.377219216576 355.65547477402816L702.377219216576 355.65547477402816Q702.377219216576 373.5396520838005 709.8431535538301 383.61724405994204Q717.3090878910843 393.66644845305217 730.5944767497723 393.66644845305217ZM823.3650980963373 407.7750772196504L805.5944711186905 407.7750772196504L805.5944711186905 268.5907576167716L823.3650980963373 260.21642062251317L823.3650980963373 407.7750772196504ZM888.372663238208 410.2164093603495L888.372663238208 410.2164093603495Q871.3968885854399 410.2164093603495 861.6883351887064 400.82011937696115Q851.979781791973 391.4238293935728 851.979781791973 375.0725815674953L851.979781791973 375.0725815674953Q851.979781791973 364.54078826285155 856.8056709073082 356.7909780952836Q861.6031724396123 349.01278034468424 870.3749355963101 344.78303047300795Q879.1750863360394 340.52489301830025 891.0410960431582 340.52489301830025L891.0410960431582 340.52489301830025Q898.705743461632 340.52489301830025 905.3768254740074 342.22814800018324Q912.0762950694141 343.9030153990349 918.0092999229735 347.2811377797697L918.0092999229735 347.2811377797697L918.0092999229735 339.92875377464117Q918.0092999229735 327.7504806541771 912.5021088148849 322.07296404790026Q906.9665301237649 316.4238350246547 895.3276210808972 316.4238350246547L895.3276210808972 316.4238350246547Q887.8616867436431 316.4238350246547 879.8280007457613 319.177430578699Q871.8227023309107 321.9310261327433 864.8677444882215 326.8420779971728L864.8677444882215 326.8420779971728L859.7579795425722 311.91020932266446Q867.6213400422657 306.7152816279212 877.6989320184074 303.7913605756885Q887.7481364115175 300.8674395234559 897.5702401403767 300.8674395234559L897.5702401403767 300.8674395234559Q916.1641070259336 300.8674395234559 925.4752342602277 310.32050467290696Q934.7579739114904 319.77356982235807 934.7579739114904 338.4809870400405L934.7579739114904 338.4809870400405L934.7579739114904 407.7750772196504L918.0092999229735 407.7750772196504L918.0092999229735 398.1800741550424Q911.8775819881944 403.99952867647625 904.2129345697206 407.1221628099285Q896.5482871512468 410.2164093603495 888.372663238208 410.2164093603495ZM891.0410960431582 394.68840144218206L891.0410960431582 394.68840144218206Q898.2799297161612 394.68840144218206 905.3768254740074 391.11156598022757Q912.5021088148849 387.5347305182732 918.0092999229735 381.0055864210547L918.0092999229735 381.0055864210547L918.0092999229735 363.00785877915683Q912.7859846451988 359.7432867305476 906.1432902158548 357.89809383350763Q899.5005957865108 356.05290093646755 893.4824281838572 356.05290093646755L893.4824281838572 356.05290093646755Q882.0422322222091 356.05290093646755 875.3995377928652 361.2194410481796Q868.7568433635213 366.3859811598916 868.7568433635213 375.271294648715L868.7568433635213 375.271294648715Q868.7568433635213 384.27015846966395 874.6898482170807 389.4934737474387Q880.5944654876087 394.68840144218206 891.0410960431582 394.68840144218206ZM983.4142912272837 407.7750772196504L965.6436642496369 407.7750772196504L965.6436642496369 303.3371592471864L983.4142912272837 303.3371592471864L983.4142912272837 317.0199742683138Q986.9911266892382 309.04306343649466 993.2647825391741 304.95525147997523Q999.5668259721415 300.8674395234559 1008.1398760476197 300.8674395234559L1008.1398760476197 300.8674395234559Q1017.6497163631336 300.8674395234559 1024.2924107924775 306.20430513335623L1024.2924107924775 306.20430513335623L1021.6239779875274 322.95297912187317Q1018.274243189824 320.59680973026815 1014.6406325618068 319.51808157507554Q1011.0070219337896 318.46774100291435 1006.7204968960505 318.46774100291435L1006.7204968960505 318.46774100291435Q999.6519887212357 318.46774100291435 994.4570610264923 322.24328954608853Q989.2337457487176 326.0188380892627 986.3382122795163 332.8602455998263Q983.4142912272837 339.70165311039005 983.4142912272837 348.8992300125587L983.4142912272837 348.8992300125587L983.4142912272837 407.7750772196504Z " fill="#fbeaeb" transform="matrix(0.8542482688229205,0,0,0.8542482688229207,0,13.641987030114223)"/></g></svg>